<svg width="54" height="43" viewBox="0 0 54 43" fill="none" xmlns="http://www.w3.org/2000/svg">
<mask id="mask0" mask-type="alpha" maskUnits="userSpaceOnUse" x="0" y="-1" width="54" height="44">
<rect x="0.964905" y="-0.000244141" width="52.3268" height="43" fill="#C4C4C4"/>
</mask>
<g mask="url(#mask0)">
<path d="M51.3126 16.1249V38.5207C51.3189 39.4022 51.0564 40.2647 50.5601 40.9932C50.4007 41.2454 50.2144 41.4797 50.0047 41.692L32.2314 23.9186L31.6042 23.2915L43.8413 11.0544L44.6117 11.5382L50.8826 15.3544C51.1494 15.5198 51.312 15.8111 51.3126 16.1249Z" fill="#CFD8DC"/>
<path d="M43.8411 11.0546L30.977 23.9187L13.2036 41.692C12.9938 41.4798 12.8076 41.2455 12.6482 40.9933C12.1519 40.2648 11.8894 39.4023 11.8957 38.5208V9.85413C11.8957 7.38037 13.9011 5.375 16.3749 5.375H34.2915C34.4543 5.38054 34.6137 5.42346 34.7573 5.50039L43.0707 10.5708L43.8411 11.0546Z" fill="#4CAF50"/>
<path d="M50.0048 41.6917C49.7926 41.9016 49.5584 42.0879 49.306 42.2471C48.5775 42.7435 47.715 43.0061 46.8335 42.9996H16.3752C15.4937 43.0061 14.6312 42.7435 13.9027 42.2471C13.6504 42.0878 13.4161 41.9016 13.204 41.6917L30.9773 23.9184L31.6044 23.2913L32.2315 23.9184L50.0048 41.6917Z" fill="#0F3C80"/>
<path d="M50.5602 40.9933C50.2432 41.5014 49.8142 41.9304 49.3061 42.2474L30.9774 23.9187C30.6346 23.5689 30.6403 23.0074 30.9901 22.6646C31.3349 22.3266 31.8867 22.3266 32.2315 22.6646L50.5602 40.9933Z" fill="#FAFAFA"/>
<path d="M44.6116 11.5384L32.2311 23.9188L13.9024 42.2475C13.3943 41.9305 12.9653 41.5015 12.6483 40.9934L43.0707 10.5709L44.6116 11.5384Z" fill="#FFC107"/>
<path d="M43.2503 0C37.8109 0.00688671 33.4031 4.41471 33.3962 9.85412C33.3991 10.3954 33.4525 10.9352 33.5557 11.4666C33.7716 12.8556 34.2896 14.1803 35.0732 15.3474C35.4888 16.064 35.969 16.8094 36.476 17.6049C39.3891 21.7868 41.3974 26.5308 42.3724 31.5332C42.4708 32.0181 42.9438 32.3313 43.4286 32.2329C43.7812 32.1613 44.0566 31.8858 44.1283 31.5332C45.1025 26.5303 47.1102 21.7858 50.0229 17.603C50.5335 16.8093 51.0101 16.0694 51.3899 15.4046C52.1881 14.2268 52.7178 12.8879 52.9415 11.4827C53.0461 10.946 53.1007 10.4008 53.1045 9.85404C53.0975 4.41471 48.6898 0.00688671 43.2503 0Z" fill="#E26E03"/>
<path d="M43.2502 14.3333C45.724 14.3333 47.7294 12.3279 47.7294 9.85413C47.7294 7.38038 45.724 5.375 43.2502 5.375C40.7765 5.375 38.7711 7.38038 38.7711 9.85413C38.7711 12.3279 40.7765 14.3333 43.2502 14.3333Z" fill="#C62828"/>
<line x1="5.94558" y1="28.2952" x2="1.51314" y2="23.8628" stroke="black"/>
<line x1="6.09861" y1="19.9844" x2="2.22022" y2="23.8628" stroke="black"/>
</g>
</svg>
