<svg width="25" height="41" viewBox="0 0 25 41" fill="none" xmlns="http://www.w3.org/2000/svg">
<path d="M18.3126 18.7917C21.6092 18.7917 24.2918 16.1091 24.2918 12.8125C24.2918 9.51592 21.6092 6.83331 18.3126 6.83331C18.2909 6.83331 18.2701 6.83331 18.2484 6.83411C18.2909 6.54967 18.3126 6.26435 18.3126 5.97911C18.3126 2.68262 15.63 0 12.3334 0C9.03681 0 6.35419 2.68262 6.35419 5.97919C6.35419 6.26451 6.37589 6.54975 6.41842 6.83419C6.39671 6.83339 6.37589 6.83339 6.35419 6.83339C3.05762 6.83339 0.375 9.516 0.375 12.8126C0.375 16.1092 3.05762 18.7918 6.35419 18.7918C7.5962 18.7918 8.7832 18.408 9.77089 17.7182V38.4375C9.77089 39.8506 10.9203 41 12.3334 41C13.7464 41 14.8959 39.8506 14.8959 38.4375V37.5833H15.7501V38.4375C15.7501 38.9096 16.1321 39.2917 16.6043 39.2917H20.0209C20.493 39.2917 20.8751 38.9096 20.8751 38.4375V29.8958C20.8751 29.4237 20.493 29.0416 20.0209 29.0416H16.6042C16.1321 29.0416 15.75 29.4237 15.75 29.8958V30.75H14.8959V17.7181C15.8835 18.408 17.0705 18.7917 18.3126 18.7917ZM14.0417 32.4583H16.6042C17.0763 32.4583 17.4584 32.0763 17.4584 31.6041V30.75H19.1667V37.5833H17.4584V36.7291C17.4584 36.257 17.0763 35.8749 16.6042 35.8749H14.0417C13.5696 35.8749 13.1875 36.257 13.1875 36.7291V38.4375C13.1875 38.9088 12.8046 39.2917 12.3333 39.2917C11.862 39.2917 11.4791 38.9088 11.4791 38.4375V15.6394C11.4791 15.2624 11.2322 14.9304 10.8719 14.822C10.7901 14.7969 10.7067 14.7853 10.625 14.7853C10.3439 14.7853 10.0745 14.9246 9.91351 15.1674C9.11769 16.3668 7.78727 17.0834 6.35419 17.0834C3.99942 17.0833 2.08339 15.1673 2.08339 12.8125C2.08339 10.4577 3.99942 8.54169 6.35419 8.54169C6.66369 8.54169 6.98649 8.5851 7.36934 8.67935C7.6738 8.75022 8.005 8.6518 8.21521 8.41157C8.42541 8.17133 8.48379 7.83436 8.36704 7.53735C8.16516 7.02181 8.06258 6.49802 8.06258 5.97919C8.06258 3.62442 9.97861 1.70839 12.3334 1.70839C14.6882 1.70839 16.6042 3.62442 16.6042 5.97919C16.6042 6.49802 16.5016 7.02189 16.2997 7.53735C16.183 7.83428 16.2414 8.17133 16.4516 8.41157C16.6618 8.6518 16.9896 8.7527 17.2974 8.67935C17.6803 8.5851 18.0032 8.54169 18.3126 8.54169C20.6674 8.54169 22.5834 10.4577 22.5834 12.8125C22.5834 15.1673 20.6674 17.0833 18.3126 17.0833C16.8795 17.0833 15.5491 16.3668 14.7533 15.1673C14.5455 14.8536 14.1576 14.7127 13.7948 14.8219C13.4345 14.9303 13.1876 15.2623 13.1876 15.6393V31.6041C13.1876 32.0763 13.5696 32.4583 14.0417 32.4583Z" fill="#BEBEBE"/>
</svg>
