<svg width="26" height="32" viewBox="0 0 26 32" fill="none" xmlns="http://www.w3.org/2000/svg">
<path d="M13 30L12.6469 30.4342L13 30.7213L13.3531 30.4342L13 30ZM13 30C13.3531 30.4342 13.3532 30.4341 13.3534 30.4339L13.3539 30.4335L13.3558 30.4319L13.3626 30.4264L13.3877 30.4058C13.4096 30.3877 13.4416 30.3612 13.483 30.3265C13.5657 30.2572 13.6862 30.1551 13.8391 30.0227C14.1447 29.758 14.5798 29.3718 15.1014 28.8832C16.1437 27.9067 17.5349 26.5175 18.9276 24.868C21.6859 21.6012 24.5596 17.1881 24.5596 12.8889C24.5596 6.55447 19.3851 1.44037 13 1.44037C6.61487 1.44037 1.44037 6.55447 1.44037 12.8889C1.44037 17.1881 4.31413 21.6012 7.0724 24.868C8.46514 26.5175 9.85626 27.9067 10.8986 28.8832C11.4202 29.3718 11.8553 29.758 12.1609 30.0227C12.3138 30.1551 12.4343 30.2572 12.517 30.3265C12.5584 30.3612 12.5904 30.3877 12.6123 30.4058L12.6374 30.4264L12.6442 30.4319L12.6461 30.4335L12.6466 30.4339C12.6468 30.4341 12.6469 30.4342 13 30ZM17.1547 12.8889C17.1547 15.1518 15.2999 16.9959 13 16.9959C10.7001 16.9959 8.84535 15.1518 8.84535 12.8889C8.84535 10.626 10.7001 8.78185 13 8.78185C15.2999 8.78185 17.1547 10.626 17.1547 12.8889Z" stroke="#999999" stroke-width="1.11926"/>
</svg>
