<svg width="57" height="57" viewBox="0 0 57 57" fill="none" xmlns="http://www.w3.org/2000/svg">
<path fill-rule="evenodd" clip-rule="evenodd" d="M28.5 57C44.2401 57 57 44.2401 57 28.5C57 12.7599 44.2401 0 28.5 0C12.7599 0 0 12.7599 0 28.5C0 44.2401 12.7599 57 28.5 57ZM41.268 29.5248C41.268 29.3918 41.2148 29.2987 41.1084 29.2455L31.8117 21.8241C31.7319 21.7709 31.6521 21.7842 31.5723 21.864C31.4925 21.9172 31.4526 21.9837 31.4526 22.0635V22.1034L36.6396 28.647H17.8467C17.8201 28.647 17.7802 28.7401 17.727 28.9263C17.7004 29.0859 17.6871 29.2588 17.6871 29.445C17.6871 29.6578 17.7004 29.8706 17.727 30.0834C17.7802 30.2696 17.8334 30.3627 17.8866 30.3627H36.6396L31.4526 36.9063C31.426 36.9861 31.4393 37.0659 31.4925 37.1457C31.5457 37.1989 31.6122 37.2255 31.692 37.2255C31.7452 37.2255 31.7851 37.2122 31.8117 37.1856L41.1084 29.8041C41.2148 29.7509 41.268 29.6578 41.268 29.5248Z" fill="#0F3C80"/>
</svg>
